<?xml version="1.0" encoding="UTF-8"?>
<!-- Created with Inkscape (http://www.inkscape.org/) -->
<svg width="360" height="120" version="1.1" viewBox="0 0 360 120" xmlns="http://www.w3.org/2000/svg" xmlns:cc="http://creativecommons.org/ns#" xmlns:dc="http://purl.org/dc/elements/1.1/" xmlns:rdf="http://www.w3.org/1999/02/22-rdf-syntax-ns#">
 <metadata>
  <rdf:RDF>
   <cc:Work rdf:about="">
    <dc:format>image/svg+xml</dc:format>
    <dc:type rdf:resource="http://purl.org/dc/dcmitype/StillImage"/>
    <dc:title/>
   </cc:Work>
  </rdf:RDF>
 </metadata>
 <path d="m236.83 106.07c-4.6915-1.4837-10.143-4.2144-10.918-5.4692-0.42799-0.69252 1.9815-9.6934 2.9191-10.904 0.11601-0.14985 2.8633 1.1285 6.1052 2.8407 5.2064 2.7499 6.6392 3.0668 12.279 2.7165 5.4659-0.33957 6.7251-0.79236 8.75-3.1464 3.9577-4.6011 2.819-10.318-2.6147-13.128-3.7048-1.9158-9.3403-1.9235-15.611-0.02117-2.6999 0.81905-5.2191 1.494-5.5982 1.5-0.37912 6e-3 0.0115-2.0458 0.86795-4.5595l1.5572-4.5703-3.2657-3.1797c-10.671-10.39-6.751-28.227 7.5298-34.265 3.103-1.312 6.7063-1.6558 16.068-1.533 8.5895 0.11268 13.309-0.27979 16.376-1.3617 2.3695-0.83601 4.6514-1.52 5.0708-1.52 0.41944 0 0.0722 2.741-0.77174 6.0911l-1.5344 6.0911-3.854-0.36754c-2.1197-0.20214-3.854-0.26313-3.854-0.13552s1.125 1.8898 2.5 3.916c1.9046 2.8066 2.5 4.9723 2.5 9.0941 0 6.2782-1.6556 10.002-6.1156 13.755l-3.1874 2.682 3.6724 3.0271c4.8751 4.0185 6.6306 7.6847 6.6306 13.847 0 6.0634-1.6526 9.6098-6.4348 13.809-6.3618 5.5857-19.636 7.7745-29.065 4.7926zm15.905-41.74c2.6829-1.2224 5.5952-6.3206 5.5952-9.7947 0-3.368-2.6396-8.8035-4.8496-9.9863-10.921-5.8446-20.542 10.364-10.945 18.439 3.2113 2.7022 6.3169 3.1107 10.199 1.3419zm-139.4 20.875c-1.9208-0.64061-5.8196-3.4309-8.6639-6.2006-6.2712-6.1066-8.9012-13.451-8.076-22.552 1.6898-18.636 20.065-29.802 35.696-21.693l5.0366 2.6131v-21.904h15v70h-14v-5.9174l-5.0668 3.1497c-5.7073 3.5478-13.761 4.56-19.926 2.5041zm16.357-13.115c13.469-5.6279 9.5379-26.631-4.9822-26.617-14.751 0.0142-18.517 20.524-4.882 26.585 3.8668 1.7186 5.814 1.7251 9.8642 0.03282zm165.63 13.444c-6.8758-2.0915-13.048-7.314-16.623-14.066-1.3863-2.618-1.852-5.642-1.8479-12 5e-3 -7.2474 0.39398-9.2368 2.6424-13.5 3.1141-5.9046 5.7496-8.4779 11.79-11.512 5.3064-2.6654 14.671-3.0164 20.075-0.75243 8.4651 3.5462 14.261 13.047 14.391 23.592l0.0784 6.327-17.25-0.11836c-14.213-0.09752-17.25 0.12926-17.25 1.2881 0 2.6485 4.0209 6.5188 8.5823 8.2608 3.8504 1.4705 5.4648 1.5737 10.364 0.66266 3.1915-0.59352 7.7125-2.0018 10.047-3.1296l4.244-2.0505-0.63238 3.1619c-2.0941 10.471-2.1525 10.551-9.2398 12.74-6.6247 2.0462-14.739 2.5055-19.371 1.0965zm16.256-32.491c-0.1375-0.31632-0.25-1.2847-0.25-2.1521s-1.3154-2.8923-2.9231-4.5c-4.2268-4.2268-9.1447-4.0553-13.677 0.47692-1.87 1.87-3.4001 4.2325-3.4003 5.25-2.3e-4 1.6911 0.88035 1.835 10.25 1.6751 5.6376-0.09618 10.138-0.43368 10-0.75zm-269.88-2.3251 15.149-34.75h11.764l14.36 32.973c7.8979 18.135 14.62 33.792 14.938 34.794 0.53021 1.6705-0.063 1.7966-7.1846 1.5273l-7.7625-0.29353-5.2789-13-30.162-0.55103-5.5127 14.051h-15.458zm29.626 6.9558c0-0.4368-1.9878-5.7243-4.4173-11.75-4.0081-9.9409-4.5071-10.724-5.3867-8.4558-0.53319 1.375-2.5954 6.5249-4.5827 11.444-1.9873 4.9194-3.6133 9.0819-3.6133 9.25 0 0.16812 4.05 0.30567 9 0.30567s9-0.35738 9-0.79418zm86.023 27.044c0.0128-0.4125 6.6806-16.05 14.817-34.75l14.794-34h11.813l30.333 69.577-15.925-0.57734-5.4158-13-30.104-0.55028-5.5124 14.05h-7.4116c-4.0764 0-7.4012-0.3375-7.3884-0.75zm40.297-37.5c-2.4827-6.1875-4.6385-11.381-4.7907-11.54s-2.246 4.544-4.6529 10.453c-2.4069 5.9087-4.5262 11.102-4.7096 11.54-0.18334 0.43855 3.9418 0.79737 9.167 0.79737h9.5003z"/>
</svg>
