<svg width="109" height="31" viewBox="0 0 109 31" fill="none" xmlns="http://www.w3.org/2000/svg">
<path d="M15.92 30C12.7467 30 9.96 29.44 7.56 28.32C5.16 27.1733 3.29333 25.5467 1.96 23.44C0.653333 21.3333 1.49012e-08 18.8533 1.49012e-08 16C1.49012e-08 13.1467 0.653333 10.6133 1.96 8.4C3.29333 6.18667 5.09333 4.48 7.36 3.28C9.65333 2.05333 12.2133 1.44 15.04 1.44C17.84 1.44 20.3733 2.05333 22.64 3.28C24.9333 4.48 26.7333 6.18667 28.04 8.4C29.3467 10.6133 30 13.1467 30 16C30 17.6 29.6133 19.1867 28.84 20.76C28.0933 22.3067 27.16 23.5467 26.04 24.48H30.72V30H15.92ZM15.04 23.96C16.4533 23.96 17.7467 23.64 18.92 23C20.0933 22.36 21.0267 21.44 21.72 20.24C22.4133 19.04 22.76 17.64 22.76 16.04C22.76 14.44 22.4133 13.0533 21.72 11.88C21.0533 10.68 20.1333 9.76 18.96 9.12C17.7867 8.45333 16.48 8.12 15.04 8.12C13.5733 8.12 12.2533 8.45333 11.08 9.12C9.90667 9.76 8.97333 10.68 8.28 11.88C7.61333 13.0533 7.28 14.44 7.28 16.04C7.28 17.64 7.61333 19.04 8.28 20.24C8.97333 21.44 9.90667 22.36 11.08 23C12.28 23.64 13.6 23.96 15.04 23.96ZM46.2138 30.6C43.8404 30.6 42.0404 29.9467 40.8138 28.64C39.6138 27.3067 39.0138 25.4933 39.0138 23.2V15.68H36.2938V10.8H39.0138V5.04H46.0538V10.8H50.4538V15.68H46.0538V22.24C46.0538 23.28 46.2404 24.0267 46.6138 24.48C47.0138 24.9333 47.7071 25.16 48.6938 25.16C49.5738 25.16 50.4538 24.92 51.3338 24.44V29.68C50.6404 30 49.8938 30.2267 49.0938 30.36C48.3204 30.52 47.3604 30.6 46.2138 30.6ZM63.0834 8.24C62.0168 8.24 61.1234 7.89333 60.4034 7.2C59.6834 6.50667 59.3234 5.62667 59.3234 4.56C59.3234 3.52 59.6834 2.65333 60.4034 1.96C61.1234 1.24 62.0168 0.879998 63.0834 0.879998C64.1234 0.879998 65.0034 1.24 65.7234 1.96C66.4701 2.65333 66.8434 3.52 66.8434 4.56C66.8434 5.6 66.4701 6.48 65.7234 7.2C65.0034 7.89333 64.1234 8.24 63.0834 8.24ZM59.5634 10.8H66.6034V30H59.5634V10.8ZM76.4563 10.8H82.9763V12.88C83.7763 12.0267 84.6963 11.3733 85.7363 10.92C86.7763 10.44 87.8829 10.2 89.0563 10.2C90.4963 10.2 91.6429 10.4133 92.4963 10.84C93.3763 11.2667 94.0829 11.9067 94.6163 12.76C95.4163 11.96 96.3896 11.3333 97.5363 10.88C98.6829 10.4267 99.8429 10.2 101.016 10.2C103.55 10.2 105.35 10.8533 106.416 12.16C107.483 13.44 108.016 15.2933 108.016 17.72V30H101.296V18.72C101.296 17.6533 101.096 16.88 100.696 16.4C100.296 15.92 99.6296 15.68 98.6963 15.68C97.4963 15.68 96.5229 16.1067 95.7762 16.96C95.8029 17.4133 95.8163 18.1067 95.8163 19.04V30H89.0963V18.44C89.0963 17.4533 88.9229 16.7467 88.5763 16.32C88.2296 15.8933 87.6163 15.68 86.7363 15.68C85.3763 15.68 84.2029 16.44 83.2163 17.96V30H76.4563V10.8Z" fill="black"/>
</svg>
